<mxfile host="app.diagrams.net" modified="2020-12-07T21:36:43.402Z" agent="5.0 (X11; Linux x86_64) AppleWebKit/537.36 (KHTML, like Gecko) Chrome/87.0.4280.66 Safari/537.36" etag="wsBqdO_pLPyf1xFr3bkH" version="13.10.9" type="github">
  <diagram id="qM06MgW-gL-EkChnqFOd" name="Page-1">
    <mxGraphModel dx="1603" dy="1656" grid="1" gridSize="10" guides="1" tooltips="1" connect="1" arrows="1" fold="1" page="1" pageScale="1" pageWidth="827" pageHeight="1169" math="0" shadow="0">
      <root>
        <mxCell id="0" />
        <mxCell id="1" parent="0" />
        <mxCell id="SAxWrN6NDsW0q7hudvpC-3" value="Internal Network" style="rounded=0;whiteSpace=wrap;html=1;horizontal=1;verticalAlign=top;align=left;" vertex="1" parent="1">
          <mxGeometry x="-400" y="-775.86" width="900" height="415.86" as="geometry" />
        </mxCell>
        <mxCell id="SAxWrN6NDsW0q7hudvpC-4" value="" style="rounded=1;whiteSpace=wrap;html=1;align=left;" vertex="1" parent="1">
          <mxGeometry x="-370" y="-711" width="380" height="301" as="geometry" />
        </mxCell>
        <mxCell id="CZdPMsCwPGe5dLMLJ8tG-6" value="" style="rounded=0;whiteSpace=wrap;html=1;" parent="1" vertex="1">
          <mxGeometry x="-581" y="-735" width="162" height="170" as="geometry" />
        </mxCell>
        <mxCell id="CZdPMsCwPGe5dLMLJ8tG-2" value="" style="shape=image;html=1;verticalAlign=top;verticalLabelPosition=bottom;labelBackgroundColor=#ffffff;imageAspect=0;aspect=fixed;image=https://cdn1.iconfinder.com/data/icons/simple-icons/128/heroku-128-black.png" parent="1" vertex="1">
          <mxGeometry x="-570" y="-734" width="48" height="48" as="geometry" />
        </mxCell>
        <mxCell id="CZdPMsCwPGe5dLMLJ8tG-3" value="" style="shape=image;verticalLabelPosition=bottom;labelBackgroundColor=#ffffff;verticalAlign=top;aspect=fixed;imageAspect=0;image=data:image/png,iVBORw0KGgoAAAANSUhEUgAAAQAAAAEACAYAAABccqhmAAAdiklEQVR4Ae3BD0yVZ57o8e8jWFaBA6UcFcOpWHWKIvXPhASGOKK3E1ozEcx6bLPTpa0SNybDBLjWTNKy6tDmTqwXuOMkZhugLduZtB43gJm1JdOruIaRhFtbiyittkIPEfVQCgfURcHnPr033Z1/3aKeA+973t/no7SBEMKRlDYQQjiS0gZCCEdS2kAI4UhKGwghHElpAyGEIyltIIRwJKUNhBCOpLSBEMKRlDYQQjiS0gZCCEdS2kAI4UhKGwghHElpAyGEIyltIIRwJKUNhBCOpLSBEMKRlDYQQjiS0gZCCEdS2kAI4UhKGwghHElpAyGEIyltIIRwJKUNhBCOpLSBEMKRlDYQQjiS0gZCCEdS2kAI4UhKGwghHElpAyGEIyltIIRwJKUNhBCOpLSBEMKRlDYQQjiS0gZCCEdS2kAI4UhKGwghHElpAyGEIyltIIRwJKUNhBCOpLSBEMKRlDYQQjiS0gZCCEdS2kAI4UhKGwghHElpAyGEIyltIIRwJKUNhBCOpLSBEMKRlDYQQjiS0gZCCEdS2kAI4UhKGwghHElpAyGEIyltICLKjc4P+drNj0/zjbFLF7kzOsJkzcpcxTdmPbaar83OXIWILEobCFu6c32UGx+fZuzzC9zs/JB///wCd66PEk4zYuP4m0eWMCtzFTGPLGH2Y6uZERuHsCelDYRtjH1+geD773Kj8zRjn1/ACmIeWcLszNXE5qxhduYqhH0obSAsbfTUvzHafpLRU//GneujWNmM2Djicn5IXPYa4nJ+iLA2pQ2E5Yx9foHg++8y/P6/cuf6KHY0IzaOuJwf8mDBFmIeWYKwHqUNhCXcuT7KV03vEPzf73L7aj+RZObcFFz/7UkeLHyKGbFxCGtQ2kBYwpe/qePL39YTyR76u6089JNtCGtQ2kBYwo3OD+n7+U+JZPPKXsT1+AaENShtICyjt+Q5xj6/QCSaOTeFhfWHEdahtIGwjOD7R7lS/QqRaF7Zi7ge34CwDqUNhKVc2rqZ21f7iSQz56awsP4wwlqUNhCWEnz/KFeqXyGSzCt7EdfjGxDWorSBsJxLWzdz+2o/kWDm3BQW1h9GWI/SBuK+DB9rYeA3dcx6NIP5u3YTCsH3j3Kl+hUigXv7z3iw4ClC4crBKq7/n3aSf7KNhPX5iPujtIG4J7cu9+GvKGe04xTf8FRWkVTgJRQubsnnzvVR7GxGbByPvP4vzIiN434NNvvwV5TzjbisHDyVVTwwPxVxb5Q2EHct8FYtVw9WMzES5M+l1dSSsD6f+/Xlb+r48rf12NlDf7eVh36yjfs12nGKz7Zt4c9FxbuYu6MM9zPFiLuntIGYtFuX+/BXlDPacYpvExXvYlHdIWalZ3A/7lwf5fPn/5Y710exoxmxcTzy+r8wIzaO+3Gzu4vPtm1hYiTIt4nLysFTWcUD81MRk6e0gZiU4WMt+CvKmRgJ8l2i4l0sfe8UUfEu7seXv6njy9/WY0cP/d1WHvrJNu7HxEiQT7353Lrcx3eJinfhqawiYX0+YnKUNhDf6fK+vQTequVuzErPYFHdIaLiXdyrO9dH+fz5v+XO9VHsZEZsHI+8/i/MiI3jXk2MBPls2xZudndxN5IKvHgqqxDfTWkD8a1uXe6jp7SYm91d3IuE9fmk1dRyP778TR1f/rYeO3mw4Cnc23/G/fBXlDPY7ONezErPIK2mlgfmpyK+ndIG4q+62d3FZ9u2MDES5H4kFXjxVFZxr25f7efS1s3YycL6w8ycm8K98leUM9js435ExbtYVHeIWekZiL9OaQPxFwabffgrygkVT2UVSQVe7tWV6lcIvn8UO3A9voF5ZS9yrwabffgrygkVT2UVSQVexF9S2kD8iSsHq7h6sJpQS6upJWF9Pvfi9tV+Lm3djB0srD/MzLkp3IvhYy30lBYTanN3lDFvRzniTyltIP6Dv6KcwWYf4RAV72JR3SFmpWdwL65Uv0Lw/aNYmevxDcwre5F7cbO7i8+2bWFiJEg4JBV48VRWIf6T0gbi//FXlDPY7COcouJdLH3vFFHxLu7W7av9XNq6GStbWH+YmXNTuFsTI0HOP5HDxEiQcEoq8OKprEL8f0obCPwV5Qw2+5gKs9IzWFR3iKh4F3frSvUrBN8/ihXF5fyQ+S/9D+7WxEiQz7Zt4WZ3F1MhqcCLp7IKAUobOJy/opzBZh9TKWF9Pmk1tdytG50f0vfzn2JFqb/8NbMzV3G3ekqLGT7WwlRKKvDiqazC6ZQ2cDB/RTmDzT6mQ1KBF09lFXer7+c/5Ubnh1jJ7MxVpP7y19wtf0U5g80+pkNSgRdPZRVOprSBQ/kryhls9jGdPJVVJBV4uRs3Oj+k7+c/xUpSf/lrZmeu4m4MNvvwV5QznZIKvHgqq3AqpQ0caLDZh7+iHCtIq6klYX0+d6Pv5z/lRueHWMHszFWk/vLX3I3hYy30lBZjBZ7KKpIKvDiR0gYOM9jsw19RjlVExbtYVHeIWekZTNaNzg/p+/lPsYLUX/6a2ZmrmKyb3V18tm0LEyNBrMJTWUVSgRenUdrAQW52d/HZti1MjASxkqh4F0vfO0VUvIvJ6i15jrHPLzCdZs5NYWH9YSZrYiTI+SdymBgJYiVR8S4W1R1iVnoGTqK0gUNMjAQ5/0QOEyNBrGhWegaL6g4RFe9iMoLvH+VK9StMp3llL+J6fAOTMTES5LNtW7jZ3YUVRcW7WPreKaLiXTiF0gYO8emWJ7jZ3YWVJazPJ62mlsm6tHUzt6/2Mx1mzk1hYf1hJquntJjhYy1Y2az0DBbVHSIq3oUTKG3gAP6KcgabfdhBUoEXT2UVkxF8/yhXql9hsmbExvE3jyzhr/n3zy9w5/ookzWv7EVcj29gMvwV5Qw2+7CDpAIvnsoqnEBpgwg32OzDX1GOnczftRv3M8VMxpe/qeNm54fEPPI9ZsTGEvPIEmbExfO12ZmruB83Oj/ka3dGRxj7/AJ3rl9n7PNPmZW5iod+so3JGGz24a8ox07m79qN+5liIp3SBhHsZncXn255AjvyVFaRVODFzoaPtdBTWowdfe/Qe8xKzyCSKW0QoSZGgnzqzefW5T7sKCrexaK6Q8xKz8CObnZ38dm2LUyMBLGjB+an8j1fC1HxLiKV0gYR6srBKq4erMbOHpifytL3TmFH55/I4dblPuzM/Uwx83ftJlIpbRChAm/VcnnfXuwsKt7F8rYu7Oj8EzncutyHnc3dUca8HeVEKqUNItiVg1VcPViNHcVl5TD/hd3MSs/Ajm52d3H51b2MdpzCjubuKGPejnIimdIGEW604xQ9pcVMjASxg6h4F/N37SGpwEskGGz2cXnfHiZGgthBVLyLtJpa4rJyiHRKGzjAxEiQntJiRjtOYWUJ6/PxVFYRFe8ikkyMBPFXlDN8rAUri8vKIa2mlqh4F06gtIGDXDlYxdWD1VhNVLyL+bv2kFTgJZINNvu4vG8PEyNBrGbujjLm7SjHSZQ2cJjRjlP0lBYzMRLECmalZ+D5xf9kVnoGTnCzuwv/P/53bnZ3YQVR8S7SamqJy8rBaZQ2cKCJkSA9pcWMdpxiOiWsz8dTWUVUvAsnmRgJ4q8oZ/hYC9MpLiuHtJpaouJdOJHSBg525WAVVw9WMx2SCrx4KqtwMn9FOYPNPqbD3B1lzNtRjpMpbeBwox2n6CktZmIkyFRJKvDiqaxCgL+inMFmH1MlKt5FWk0tcVk5OJ3SBoKJkSA9pcWMdpwi3JIKvHgqqxD/KfBWLZf37SXc4rJySKupJSrehQClDcR/uHKwiqsHqwmXpAIvnsoqxF/yV5Qz2OwjXObuKGPejnLEf1LaQPyJm91d9JQWc+tyH6GUVODFU1mF+Hb+inIGm32EUlS8i7SaWuKychB/SmkD8RcmRoL4K8oZPtZCKMRl5bCo7hDiu/WUFjN8rIVQiMvKIa2mlqh4F+IvKW0gvlXgrVou79vL/ZiVnsGiukNExbsQ321iJMhn27Zws7uL+zF3RxnzdpQjvp3SBjbzyfbNfM39t0Uk5W8k3G52d9FTWsyty33crah4F9/ztfDA/FTE5N263Men3nwmRoLcrah4F2k1tcRl5RBuwfYT9Ncf4GuL9tcS7UrETpQ2sJGAr4GLO4v5RkzqAjylFbi9RYTTxEgQf0U5w8dauBtpNbUkrM9H3L3RjlN8tm0LdyMuK4e0mlqi4l2EU8DXgL+mkrG+Xr6RWlqBp6wCO1HawEZO5y5hrK+XPxeTugBPaQVubxHhFHirlsv79jIZ7meKmb9rN+LeXTlYxdWD1UzG3B1lzNtRTjgFfA34ayoZ6+vlz8WkLmB12wXsRGkDmwj4Gri4s5j/SkzqAjylFbi9RYTLze4uekqLuXW5j28zKz2D7x16D3H/Pt3yBDe7u/g2D8xPxVNZRVxWDuES8DXgr6lkrK+X/8ri/bW4vUXYhdIGNnE6dwljfb1MRkzqAlK2luD2FhHtSiTUJkaC+CvKGT7Wwp+LinfxPV8LD8xPRdy/W5f7+NSbz8RIkD+XsD4fT2UVUfEuQm08OMRXLUfw11Qy1tfLZMSkLmB12wXsQmkDGxhsOcIn2zdzt6JdiczbWkLKthKiXYmEWuCtWi7v28sfm79rN+5nihGhE3irlsv79vLH5u/ajfuZYkJtPDhEf90BrtQfYDw4xN169LXDJOVvxA6UNrCBrqd+RLD9BPcq2pXIvK0lpGwrIdqVSCjd7O6ip7SYW5f7iMvKYVHdIUTo9ZQWM3yshQfmp5JWU8us9AxCaTw4RH/dAa7UH2A8OMS9cmWvJeOd32MHShtY3PVzZ/j4ySxCIdqVyLytJaRsKyHalUioTIwEudndRVxWDiJ8RjtOMSs9g6h4F6EyHhyiv+4AV+oPMB4cIhQee7eD2GUrsDqlDSzu4s5iAr4GQinalciD+RvxlFYQk7oA4Txjfb34ayr5quUI48EhQsntLWLx/lqsTmkDCxvr6+V07hLCye0twlNaQUzqAkTkG+vrxV9TScDXQDitbrtATOoCrExpAwvzV1fSV1PJVHB7i/CUVhCTugARecb6evHXVBLwNTAVUksr8JRVYGVKG1hYR+YcxoNDTCW3t4iUrSXELluBsL+xvl78NZUEfA1MpWhXIlmd17AypQ0sKuBr4OLOYqaLK3stnrKXcGWvRdhPsP0E/uqXCbafYLos3l+L21uEVSltYFEfP5nF9XNnmG6u7LV4yl7Clb0WYX3B9hP4q18m2H6C6Ra7bAWPvduBVSltYEHXz53h4yezsBJX9lo8ZS/hyl6LsJ5g+wn81S8TbD+BlWS883tc2WuxIqUNLOjizmICvgasyJW9Fk/ZS7iy1yKmX7D9BP7qlwm2n8CK3N4iFu+vxYqUNrCY8eAQHZlzsLJoVyJZndcQ068jcw7jwSGsLKvzGtGuRKxGaQOL6a/7FT2/2ImVxS5bwWPvdiCm38dPZnH93BmsLLW0Ak9ZBVajtIHFnM5dwlhfL1a2eH8tbm8RYvoFfA1c3FmMlcWkLmB12wWsRmkDCxlsOcIn2zdjZdGuRFa1fUq0KxFhDR2ZcxgPDmFlj752mKT8jViJ0gYW8sn2zQy2HMHK3N4iFu+vRVhHzy920l/3K6wsKX8jj752GCtR2sAixvp6OZ27BKt77N0OYpetQFjHWF8vp3OXYHWr2y4Qk7oAq1DawCL81ZX01VRiZbHLVvDYux0I6/n4ySyunzuDlaWWVuApq8AqlDawiNO5Sxjr68XKFu+vxe0tQlhPwNfAxZ3FWFm0K5GszmtYhdIGFjDYcoRPtm/G6rI6rxHtSkRYz3hwiI7MOVjdo68dJil/I1agtIEFfLJ9M4MtR7Ayt7eIxftrEdZ1cWcxAV8DVpaUv5FHXzuMFShtMM3G+no5nbsEq3v0tcMk5W9EWNdgyxE+2b4Zq1vddoGY1AVMN6UNppm/upK+mkqsLNqVSFbnNYT1dWTOYTw4hJWlllbgKatguiltMM1O5y5hrK8XK3N7i1i8vxZhfRd3FhPwNWBlMakLWN12gemmtME0un7uDB8/mYXVPfraYZLyNyKsb7DlCJ9s34zVZbzze1zZa5lOShtMo4s7iwn4GrCyaFciWZ3XEPbRkTmH8eAQVub2FrF4fy3TSWmDadSROYfx4BBW5vYWsXh/LcI+Lu4sJuBrwMqiXYlkdV5jOiltMI0+2b6ZwZYjWNni/bW4vUUI+xhsOcIn2zdjZa7stWS883umk9IG02yw5Qj99QcItp/AirI6rxHtSkTYx3hwiI7MOViRK3stKVtLSMrfyHRT2sAixvp68ddU8lXLEcaDQ1iBK3stGe/8HmE/XU/9iGD7Cawg2pXIg/kb8ZRWEJO6AKtQ2sBixoNDBHwN9NcfYKyvl+mU9o/7Sdn2M4T99Nf9ip5f7GQ6xaQuwL25iJRtJUS7ErEapQ0sLOBr4NrhfybYfoLp8Ni7HcQuW4Gwn+vnzvDxk1lMB1f2WuZs/nvc3iKsTGkDG7h+7gz99QcI+BqYKtGuRLI6ryHsqyNzDuPBIaaK21tEytYSYpetwA6UNrCR8eAQ/XUHuFJ/gPHgEOGUlL+RR187jLCvT7ZvZrDlCOEU7Upk3tYSUraVEO1KxE6UNrCpgK+B/voDXD93hnBI+8f9pGz7GcK++ut+Rc8vdhIOsctWkLK1BLe3CLtS2sDmgu0nuHb4nwn4Ggilx97tIHbZCoR9XT93ho+fzCKU3N4i5mz+e1zZa7E7pQ0ixFhfL/31Bwj4GhgPDnE/ol2JZHVeQ9hfR+YcxoND3I9oVyJubxEpW0uISV1ApFDaIMKMB4f4quUI/ppKxvp6uReu7LVkvPN7hP11PfUjgu0nuBcxqQvwlFbwYP5Gol2JRBqlDSJYsP0E/fUHGGw5wt1ILa3AU1aBsD9/dSV9NZXcDVf2WjxlL+HKXkskU9rAAcb6evHXVPJVyxHGg0N8l0dfO0xS/kaE/QXbT9D11I/4LtGuRB7M34intIKY1AU4gdIGDjIeHCLga6C//gBjfb18m6zOa0S7EhH2Nx4coiNzDt8mJnUBKVtLcHuLiHYl4iRKGzjUYMsR+usPEGw/wR+LSV3A6rYLiMhxOncJY329/DFX9lpStpaQlL8Rp1LawOGunztDf/0BAr4Gvub2FrF4fy0iclzcWUzA18DX3N4iUraWELtsBU6ntMEUuT08xPDZj0hYvpKZCYlYzXhwiBvnzjB72QqiXYmIyDEeHOLGuTPMXraCaFciVnN7eIjhsx+RsHwlMxMSmSpKG0yRk4XrGGhr5WsJy1eS8mQB7tw8knPzEMJpBtpaCbS10v9uM8NnP+Jrybl5rGk6zlRR2mAK3B4e4neLH+SvmZmQSHJuHsk/WIs7N4+E5SsRItIMn/2IQFsrA384wUBbK7eHh/hrfnzxK2YmJDIVlDaYAv1Hm2h/dhOTMTMhkeTcPJJ/sBZ3bh4Jy1cihN0Mn/2IQFsrA384wUBbK7eHh5iM7DcbSdlQyFRQ2mAKdL5UxsV/quFezExIJDk3j+QfrCVx+UqSc/MQwmqGz35EoK2VgT+cYKCtldvDQ9yLh59+ju8feJ2poLTBFGhZvZAb/h5CJTk3j+QfrMWdm0dybh5CTLWBtlYCba0M/OEEA22thMpsTxr5py8xFZQ2CLMb/h5aVi8knJJz80j+wVoSl68kOTePmQmJCBEqt4eHGGhrZejsRwz84QQDba2EU/7pS8z2pBFuShuE2Rdvv8EHJc8zlRKWr8Sdm0fC8hUk5+Yx25OGEJN1w9/DQFsrw2fPEGhrZfjsR0yl7x94nYeffo5wU9ogzD4oeZ4v3n6D6TTbk0Zybh4Jy1fgzs0jYflKhPjG8NmPCLS1Mnz2DANtrdzw9zCdHn76Ob5/4HXCTWmDMGtZvZAb/h6sZGZCIgnLV5L8g7W4c/NIzs1DOMdAWyuBtlaGu84w0NbK7eEhrGS2J43805cIN6UNwuj28BC/W/wgVjczIZHHXq7m4aefQ0SuL95+g49fKuP28BBWl3/6ErM9aYST0gZh1H+0ifZnN2EHybl5rGk6johcJwvXMdDWih1kv9lIyoZCwklpgzDqfKmMi/9Ugx08/PRzfP/A64jI9UHJ83zx9hvYweJ/KCXz5WrCSWmDMDq2bhXDZz/CDtJf2M3SXXsQkev8vj10v7oXO0hYvpL1xz8knJQ2CKNGt8IuMl+uZvE/lCIi1xdvv8EHJc9jF5sCmnBS2iBMBtpaOVm4DrtY03Sc5Nw8ROQaaGvlZOE67GJN03GSc/MIF6UNwuT8vj10v7oXu1jTdJzk3DxE5Bpoa+Vk4TrsIv2F3SzdtYdwUdogTNqf3UT/0SbsYlNAIyJfo1thFykbCsl+s5FwUdogTFpWL+SGvwe72BTQiMjX6FbYxcyERH588SvCRWmDMLjh76Fl9ULsYmZCIj+++BUi8rWsXsgNfw92kX/6ErM9aYSD0gZh0H+0ifZnN2EXybl5rGk6joh8JwvXMdDWil1kv9lIyoZCwkFpgzA4v28P3a/uxS6Sc/NY03QcEflOFq5joK0Vu0h/YTdLd+0hHJQ2CIOThesYaGvFLlI2FJL9ZiMi8n1Q8jxfvP0GdpGcm8eapuOEg9IGYdCyeiE3/D3YRfoLu1m6aw8i8p3ft4fuV/diFzMTEvnxxa8IB6UNQuz28BC/W/wgdpL+wm6W7tqDiHzn9+2h+9W92MmPL37FzIREQk1pgxAbaGvlZOE67CT9hd0s3bUHEfnO79tD96t7sZM1TcdJzs0j1JQ2CLHz+/bQ/epe7OT7B17n4aefQ0S+/qNNtD+7CTtJf2E3S3ftIdSUNgixD0qe54u338BO1jQdJzk3DxH5BtpaOVm4Djt5+Onn+P6B1wk1pQ1C7GThOgbaWrGTNU3HSc7NQ0S+gbZWThauw06Sc/NY03ScUFPaIMQa3Qq7WdN0nOTcPETkG2hr5WThOuxmU0ATakobhNANfw8tqxdiN2uajpOcm4eIfANtrZwsXIfd5J++xGxPGqGktEEIDbS1crJwHXazpuk4ybl5iMg3fPYjjq1bhd2saTpOcm4eoaS0QQhd/KcaOl8qw25+fPErZiYkIpyh0a2wm/QXdrN01x5CSWmDEDq/bw/dr+7FbjYFNMI5Gt0Ku1n8D6VkvlxNKCltEEInC9cx0NaK3WwKaIRzNLoVdpOcm8eapuOEktIGIXRs3SqGz36E3WwKaIRzNLoVdpOwfCXrj39IKCltEEKNboUdbQpohHM0uhV2tCmgCSWlDULk9vAQv1v8IHa0KaARztHoVthR/ulLzPakESpKG4TIQFsrJwvXYUebAhrhHI1uhR2taTpOcm4eoaK0QYj0H22i/dlN2NGmgEY4R6NbYUfZbzaSsqGQUFHaIETO79tD96t7saNNAY1wjka3wo7SX9jN0l17CBWlDULk/L49dL+6FzvaFNAI52h0K+wo/YXdLN21h1BR2iBEPih5ni/efgM72hTQCOdodCvsKGVDIdlvNhIqShuEyMnCdQy0tWJHmwIa4RyNboUdJefmsabpOKGitEGInCxcx0BbK3a0KaARztHoVthRcm4ea5qOEypKG4TIycJ1DLS1YkebAhrhHI1uhR0l5+axpuk4oaK0QYj0H23i4mv/C7tJXL6SzJerEc5xft8eBv5wArtZ8PSzPPz0c4SK0gZCCEdS2kAI4UhKGwghHElpAyGEIyltIIRwJKUNhBCOpLSBEMKRlDYQQjiS0gZCCEdS2kAI4UhKGwghHElpAyGEIyltIIRwJKUNhBCOpLSBEMKRlDYQQjiS0gZCCEdS2kAI4UhKGwghHElpAyGEIyltIIRwJKUNhBCOpLSBEMKRlDYQQjiS0gZCCEdS2kAI4UhKGwghHElpAyGEIyltIIRwJKUNhBCOpLSBEMKRlDYQQjiS0gZCCEdS2kAI4UhKGwghHElpAyGEIyltIIRwJKUNhBCOpLSBEMKRlDYQQjiS0gZCCEdS2kAI4UhKGwghHElpAyGEIyltIIRwJKUNhBCOpLSBEMKRlDYQQjiS0gZCCEdS2kAI4UhKGwghHElpAyGEIyltIIRwJKUNhBCO9H8B0iHitVJKdJIAAAAASUVORK5CYII=;" parent="1" vertex="1">
          <mxGeometry x="-560" y="-693" width="86" height="86" as="geometry" />
        </mxCell>
        <mxCell id="CZdPMsCwPGe5dLMLJ8tG-5" value="チケット担当者&lt;br&gt;ウォッチャー" style="shape=umlActor;verticalLabelPosition=bottom;verticalAlign=top;html=1;outlineConnect=0;" parent="1" vertex="1">
          <mxGeometry x="414" y="-673" width="30" height="60" as="geometry" />
        </mxCell>
        <mxCell id="CZdPMsCwPGe5dLMLJ8tG-13" style="edgeStyle=orthogonalEdgeStyle;rounded=0;orthogonalLoop=1;jettySize=auto;html=1;exitX=0.5;exitY=0.5;exitDx=0;exitDy=0;exitPerimeter=0;" parent="1" source="CZdPMsCwPGe5dLMLJ8tG-10" target="CZdPMsCwPGe5dLMLJ8tG-3" edge="1">
          <mxGeometry relative="1" as="geometry" />
        </mxCell>
        <mxCell id="CZdPMsCwPGe5dLMLJ8tG-10" value="チケット起票者" style="shape=umlActor;verticalLabelPosition=bottom;verticalAlign=top;html=1;outlineConnect=0;" parent="1" vertex="1">
          <mxGeometry x="-670" y="-673" width="30" height="60" as="geometry" />
        </mxCell>
        <mxCell id="CZdPMsCwPGe5dLMLJ8tG-17" value="PC(or Server)" style="text;html=1;strokeColor=none;fillColor=none;align=center;verticalAlign=middle;whiteSpace=wrap;rounded=0;" parent="1" vertex="1">
          <mxGeometry x="-139.99999999999997" y="-731" width="90" height="20" as="geometry" />
        </mxCell>
        <mxCell id="CZdPMsCwPGe5dLMLJ8tG-18" value="Heroku上のRedmineを&lt;br&gt;Redmine for SE+に見立てた" style="text;html=1;strokeColor=none;fillColor=none;align=center;verticalAlign=middle;whiteSpace=wrap;rounded=0;" parent="1" vertex="1">
          <mxGeometry x="-581" y="-775" width="162" height="41" as="geometry" />
        </mxCell>
        <mxCell id="CZdPMsCwPGe5dLMLJ8tG-19" value="もともとやりたいこと&lt;br&gt;Redmine for SE+ (Saas版）でメール通知をしたい&lt;br style=&quot;font-size: 16px&quot;&gt;&lt;br style=&quot;font-size: 16px&quot;&gt;Redmine for SE+(SaaS版）はインターネット上にあるがゆえに&lt;br style=&quot;font-size: 16px&quot;&gt;SCSK内のメールサーバーが使えずメール通知ができない&lt;br style=&quot;font-size: 16px&quot;&gt;PJで自前でのSVを立てれば（設定すれば）できるとのことなので&lt;br style=&quot;font-size: 16px&quot;&gt;やってみた" style="text;html=1;strokeColor=none;fillColor=none;align=center;verticalAlign=middle;whiteSpace=wrap;rounded=0;fontStyle=1;fontSize=16;" parent="1" vertex="1">
          <mxGeometry x="-620" y="-1060" width="527.5" height="160" as="geometry" />
        </mxCell>
        <mxCell id="SAxWrN6NDsW0q7hudvpC-1" value="" style="fontColor=#0066CC;verticalAlign=top;verticalLabelPosition=bottom;labelPosition=center;align=center;html=1;outlineConnect=0;fillColor=#CCCCCC;strokeColor=#6881B3;gradientColor=none;gradientDirection=north;strokeWidth=2;shape=mxgraph.networks.pc;" vertex="1" parent="1">
          <mxGeometry x="-180" y="-732" width="40" height="27" as="geometry" />
        </mxCell>
        <mxCell id="SAxWrN6NDsW0q7hudvpC-32" style="edgeStyle=orthogonalEdgeStyle;rounded=0;orthogonalLoop=1;jettySize=auto;html=1;" edge="1" parent="1" source="SAxWrN6NDsW0q7hudvpC-6" target="SAxWrN6NDsW0q7hudvpC-16">
          <mxGeometry relative="1" as="geometry" />
        </mxCell>
        <mxCell id="SAxWrN6NDsW0q7hudvpC-6" value="&lt;span style=&quot;font-size: 11px ; background-color: rgb(255 , 255 , 255)&quot;&gt;Polling and Get via REST API&lt;/span&gt;" style="fillColor=#c0f5a9;dashed=0;outlineConnect=0;strokeWidth=2;html=1;align=center;fontSize=8;verticalLabelPosition=bottom;verticalAlign=top;shape=mxgraph.eip.polling_consumer;direction=west;" vertex="1" parent="1">
          <mxGeometry x="-330" y="-677.5" width="109" height="55" as="geometry" />
        </mxCell>
        <mxCell id="SAxWrN6NDsW0q7hudvpC-19" style="edgeStyle=orthogonalEdgeStyle;rounded=0;orthogonalLoop=1;jettySize=auto;html=1;" edge="1" parent="1" source="SAxWrN6NDsW0q7hudvpC-11" target="SAxWrN6NDsW0q7hudvpC-18">
          <mxGeometry relative="1" as="geometry" />
        </mxCell>
        <mxCell id="SAxWrN6NDsW0q7hudvpC-23" value="Sending Mail" style="edgeLabel;html=1;align=center;verticalAlign=middle;resizable=0;points=[];" vertex="1" connectable="0" parent="SAxWrN6NDsW0q7hudvpC-19">
          <mxGeometry x="0.3138" y="1" relative="1" as="geometry">
            <mxPoint as="offset" />
          </mxGeometry>
        </mxCell>
        <mxCell id="SAxWrN6NDsW0q7hudvpC-25" style="edgeStyle=orthogonalEdgeStyle;rounded=0;orthogonalLoop=1;jettySize=auto;html=1;" edge="1" parent="1" source="SAxWrN6NDsW0q7hudvpC-11" target="SAxWrN6NDsW0q7hudvpC-24">
          <mxGeometry relative="1" as="geometry">
            <Array as="points">
              <mxPoint x="-120" y="-550" />
              <mxPoint x="-120" y="-550" />
            </Array>
          </mxGeometry>
        </mxCell>
        <mxCell id="SAxWrN6NDsW0q7hudvpC-26" value="Storing Issue" style="edgeLabel;html=1;align=center;verticalAlign=middle;resizable=0;points=[];" vertex="1" connectable="0" parent="SAxWrN6NDsW0q7hudvpC-25">
          <mxGeometry x="0.2488" relative="1" as="geometry">
            <mxPoint y="-5.43" as="offset" />
          </mxGeometry>
        </mxCell>
        <mxCell id="SAxWrN6NDsW0q7hudvpC-31" style="edgeStyle=orthogonalEdgeStyle;rounded=0;orthogonalLoop=1;jettySize=auto;html=1;" edge="1" parent="1" source="SAxWrN6NDsW0q7hudvpC-11" target="SAxWrN6NDsW0q7hudvpC-6">
          <mxGeometry relative="1" as="geometry" />
        </mxCell>
        <mxCell id="SAxWrN6NDsW0q7hudvpC-11" value="Polling Program" style="shape=image;html=1;verticalAlign=top;verticalLabelPosition=bottom;labelBackgroundColor=#ffffff;imageAspect=0;aspect=fixed;image=https://cdn4.iconfinder.com/data/icons/logos-and-brands/512/267_Python_logo-128.png;align=center;" vertex="1" parent="1">
          <mxGeometry x="-120" y="-672.5" width="50" height="50" as="geometry" />
        </mxCell>
        <mxCell id="SAxWrN6NDsW0q7hudvpC-16" value="REST API" style="text;html=1;strokeColor=none;fillColor=none;align=center;verticalAlign=middle;whiteSpace=wrap;rounded=0;" vertex="1" parent="1">
          <mxGeometry x="-499" y="-672.5" width="80" height="41" as="geometry" />
        </mxCell>
        <mxCell id="SAxWrN6NDsW0q7hudvpC-21" style="edgeStyle=orthogonalEdgeStyle;rounded=0;orthogonalLoop=1;jettySize=auto;html=1;" edge="1" parent="1" source="SAxWrN6NDsW0q7hudvpC-18" target="SAxWrN6NDsW0q7hudvpC-20">
          <mxGeometry relative="1" as="geometry" />
        </mxCell>
        <mxCell id="SAxWrN6NDsW0q7hudvpC-29" value="Transfer" style="edgeLabel;html=1;align=center;verticalAlign=middle;resizable=0;points=[];" vertex="1" connectable="0" parent="SAxWrN6NDsW0q7hudvpC-21">
          <mxGeometry x="-0.2946" relative="1" as="geometry">
            <mxPoint as="offset" />
          </mxGeometry>
        </mxCell>
        <mxCell id="SAxWrN6NDsW0q7hudvpC-18" value="SMTP Server" style="verticalLabelPosition=bottom;aspect=fixed;html=1;verticalAlign=top;strokeColor=none;align=center;outlineConnect=0;shape=mxgraph.citrix.smtp_server;" vertex="1" parent="1">
          <mxGeometry x="153.4" y="-684" width="76" height="92" as="geometry" />
        </mxCell>
        <mxCell id="SAxWrN6NDsW0q7hudvpC-20" value="" style="shape=image;html=1;verticalAlign=top;verticalLabelPosition=bottom;labelBackgroundColor=#ffffff;imageAspect=0;aspect=fixed;image=https://cdn4.iconfinder.com/data/icons/social-media-logos-6/512/74-outlook-128.png;align=left;" vertex="1" parent="1">
          <mxGeometry x="360" y="-664" width="48" height="48" as="geometry" />
        </mxCell>
        <mxCell id="SAxWrN6NDsW0q7hudvpC-27" style="edgeStyle=orthogonalEdgeStyle;rounded=0;orthogonalLoop=1;jettySize=auto;html=1;entryX=1;entryY=1;entryDx=0;entryDy=0;" edge="1" parent="1" source="SAxWrN6NDsW0q7hudvpC-24" target="SAxWrN6NDsW0q7hudvpC-11">
          <mxGeometry relative="1" as="geometry">
            <Array as="points">
              <mxPoint x="-80" y="-550" />
              <mxPoint x="-80" y="-550" />
            </Array>
          </mxGeometry>
        </mxCell>
        <mxCell id="SAxWrN6NDsW0q7hudvpC-28" value="Get Diff" style="edgeLabel;html=1;align=center;verticalAlign=middle;resizable=0;points=[];" vertex="1" connectable="0" parent="SAxWrN6NDsW0q7hudvpC-27">
          <mxGeometry x="-0.192" y="1" relative="1" as="geometry">
            <mxPoint x="1" y="19.08" as="offset" />
          </mxGeometry>
        </mxCell>
        <mxCell id="SAxWrN6NDsW0q7hudvpC-24" value="Lightweight DB&lt;br&gt;(ex. MS Access)" style="shape=image;html=1;verticalAlign=top;verticalLabelPosition=bottom;labelBackgroundColor=#ffffff;imageAspect=0;aspect=fixed;image=https://cdn4.iconfinder.com/data/icons/file-types-outline-1/64/dbs_sql_mysql_database_mdb_oracle_files-128.png;align=center;" vertex="1" parent="1">
          <mxGeometry x="-125.75" y="-525.75" width="45.75" height="45.75" as="geometry" />
        </mxCell>
      </root>
    </mxGraphModel>
  </diagram>
</mxfile>
